HIERARCHY
ROOT Hips
{
    OFFSET 0.000000 0.000000 0.000000
    CHANNELS 6 Xposition Yposition Zposition Zrotation Xrotation Yrotation
    JOINT Spine
    {
        OFFSET -0.000000 8.267054 0.000000
        CHANNELS 3 Zrotation Xrotation Yrotation
        JOINT Spine1
        {
            OFFSET -0.000000 23.684998 0.000000
            CHANNELS 3 Zrotation Xrotation Yrotation
            JOINT Neck
            {
                OFFSET -0.000000 23.587730 2.144339
                CHANNELS 3 Zrotation Xrotation Yrotation
                JOINT Head
                {
                    OFFSET -0.000000 14.114483 -2.016355
                    CHANNELS 3 Zrotation Xrotation Yrotation
                    End Site
                    {
                        OFFSET -0.000000 25.204432 0.000000
                    }
                }
            }
            JOINT LeftShoulder
            {
                OFFSET 4.070090 22.062094 -0.247321
                CHANNELS 3 Zrotation Xrotation Yrotation
                JOINT LeftArm
                {
                    OFFSET 10.395479 0.000000 0.000000
                    CHANNELS 3 Zrotation Xrotation Yrotation
                    JOINT LeftForeArm
                    {
                        OFFSET 37.713577 0.000000 0.000000
                        CHANNELS 3 Zrotation Xrotation Yrotation
                        JOINT LeftHand
                        {
                            OFFSET 20.284107 0.000000 0.000000
                            CHANNELS 3 Zrotation Xrotation Yrotation
                            End Site
                            {
                                OFFSET 15.122660 0.000000 0.000000
                            }
                        }
                    }
                }
            }
            JOINT RightShoulder
            {
                OFFSET -3.979272 22.062094 -0.247321
                CHANNELS 3 Zrotation Xrotation Yrotation
                JOINT RightArm
                {
                    OFFSET -10.395479 0.000000 0.000000
                    CHANNELS 3 Zrotation Xrotation Yrotation
                    JOINT RightForeArm
                    {
                        OFFSET -37.713577 0.000000 0.000000
                        CHANNELS 3 Zrotation Xrotation Yrotation
                        JOINT RightHand
                        {
                            OFFSET -20.284107 0.000000 0.000000
                            CHANNELS 3 Zrotation Xrotation Yrotation
                            End Site
                            {
                                OFFSET -15.122660 0.000000 0.000000
                            }
                        }
                    }
                }
            }
        }
    }
    JOINT LeftUpLeg
    {
        OFFSET 10.081773 0.000000 0.000000
        CHANNELS 3 Zrotation Xrotation Yrotation
        JOINT LeftLeg
        {
            OFFSET -0.000000 -36.382099 0.000000
            CHANNELS 3 Zrotation Xrotation Yrotation
            JOINT LeftFoot
            {
                OFFSET -0.000000 -49.182560 0.000000
                CHANNELS 3 Zrotation Xrotation Yrotation
                JOINT LeftToeBase
                {
                    OFFSET -0.000000 -6.553152 15.122660
                    CHANNELS 3 Zrotation Xrotation Yrotation
                    End Site
                    {
                        OFFSET -0.000000 0.000000 4.032709
                    }
                }
            }
        }
    }
    JOINT RightUpLeg
    {
        OFFSET -10.081773 0.000000 0.000000
        CHANNELS 3 Zrotation Xrotation Yrotation
        JOINT RightLeg
        {
            OFFSET -0.000000 -36.382099 0.000000
            CHANNELS 3 Zrotation Xrotation Yrotation
            JOINT RightFoot
            {
                OFFSET -0.000000 -49.182560 0.000000
                CHANNELS 3 Zrotation Xrotation Yrotation
                JOINT RightToeBase
                {
                    OFFSET -0.000000 -6.553152 15.122660
                    CHANNELS 3 Zrotation Xrotation Yrotation
                    End Site
                    {
                        OFFSET -0.000000 0.000000 4.032709
                    }
                }
            }
        }
    }
}
MOTION
Frames:    4
Frame Time:    0.008333
9.075431    92.102112    4.602487    -1.560354    1.839194    -175.257095    -1.995963    -7.228455    -0.193171    0.356625    0.424921    -0.068524    4.750579    26.554369    -4.787334    2.205403    -5.683120    -4.083952    13.774894    0.389685    -9.365123    -27.714731    -0.408701    -3.598092    0.024959    -2.602013    3.459552    23.840710    -1.317695    6.085099    -9.975093    1.143950    -0.867650    31.481640    1.842085    3.543159    -1.787320    -2.641001    4.329647    -14.548385    -1.573770    -7.825073    -0.456819    -3.710233    1.994683    0.982725    17.606628    12.917625    -1.730173    -11.278644    -3.625992    0.000000    0.000000    0.000000    -9.889546    -2.067480    -6.062104    0.352521    17.004892    -3.358229    6.026987    -8.783717    -4.918397    0.000000    0.000000    0.000000    
9.090988    92.102951    4.603008    -1.556184    1.836773    -175.232254    -2.004526    -7.221650    -0.198515    0.353697    0.429461    -0.074168    4.763460    26.540930    -4.798292    2.205300    -5.660927    -4.095121    13.777149    0.376481    -9.367906    -27.729342    -0.418461    -3.585405    -0.015311    -2.589527    3.453200    24.295956    -1.265720    6.145295    -9.965634    1.147360    -0.894801    31.506742    1.896990    3.564078    -1.765236    -2.509327    4.396050    -14.544334    -1.442155    -7.824684    -0.443760    -3.721217    1.985260    0.985534    17.613358    12.919313    -1.742814    -11.269602    -3.641412    0.000000    0.000000    0.000000    -9.863379    -2.081086    -6.035721    0.340612    17.032108    -3.406782    6.016497    -8.791409    -4.913408    0.000000    0.000000    0.000000    
9.106784    92.103088    4.604018    -1.553769    1.834033    -175.206802    -2.016224    -7.210809    -0.206799    0.353674    0.428103    -0.080872    4.760469    26.542850    -4.800499    2.220915    -5.660043    -4.094683    13.781611    0.369740    -9.364721    -27.746746    -0.427129    -3.575658    -0.159996    -3.038635    3.266105    25.598825    -1.650422    6.089683    -9.958310    1.156099    -0.917875    31.527830    1.941323    3.580542    -1.771816    -2.505703    4.506559    -14.568772    -1.434881    -7.824413    -0.432670    -3.730948    1.953072    0.983549    17.616837    12.925118    -1.764710    -11.254575    -3.638281    0.000000    0.000000    0.000000    -9.846761    -2.075161    -6.041211    0.337839    17.026814    -3.431702    6.018548    -8.800194    -4.909831    0.000000    0.000000    0.000000    
9.121532    92.102768    4.605359    -1.550706    1.831741    -175.182983    -2.023738    -7.202568    -0.212469    0.356896    0.433409    -0.086775    4.757914    26.516500    -4.805276    2.210624    -5.626891    -4.103751    13.773598    0.333869    -9.360273    -27.759329    -0.417127    -3.553683    -0.190382    -3.013061    3.241337    25.878126    -1.579292    6.215918    -9.962932    1.173938    -0.946007    31.554134    1.964088    3.604532    -1.782119    -2.500589    4.608704    -14.582396    -1.425814    -7.832639    -0.421191    -3.745246    1.943113    0.988045    17.630301    12.899981    -1.784979    -11.254466    -3.631673    0.000000    0.000000    0.000000    -9.830514    -2.072397    -6.050870    0.333995    17.024870    -3.430568    6.028424    -8.799932    -4.923143    0.000000    0.000000    0.000000    
